<?xml version="1.0" standalone="no"?>
<!DOCTYPE svg PUBLIC "-//W3C//DTD SVG 20010904//EN"
 "http://www.w3.org/TR/2001/REC-SVG-20010904/DTD/svg10.dtd">
<svg version="1.0" xmlns="http://www.w3.org/2000/svg"
 width="938.000000pt" height="417.000000pt" viewBox="0 0 938.000000 417.000000"
 preserveAspectRatio="xMidYMid meet">

<g transform="translate(0.000000,417.000000) scale(0.100000,-0.100000)"
fill="#000000" stroke="none">
<path d="M6228 3967 c-64 -10 -68 -12 -68 -36 0 -30 19 -163 23 -168 4 -3 166
15 182 21 8 3 7 33 -1 97 -7 52 -13 95 -13 97 -1 4 -54 -1 -123 -11z"/>
<path d="M6695 3922 c-44 -14 -81 -27 -83 -28 -3 -2 13 -146 23 -205 4 -26 3
-27 -67 -33 l-71 -7 6 -66 c4 -36 8 -68 11 -70 2 -2 32 1 67 6 34 6 64 9 66 7
2 -2 19 -136 38 -297 19 -162 39 -309 44 -327 40 -136 152 -173 359 -120 37 9
43 14 38 32 -2 12 -8 43 -12 69 -6 44 -9 48 -28 42 -11 -3 -44 -8 -73 -12 -46
-5 -54 -3 -76 19 -16 16 -29 45 -36 79 -9 49 -43 327 -58 475 -7 70 -11 67
111 80 l68 7 -6 51 c-3 28 -6 59 -6 70 0 17 -6 18 -62 12 -35 -4 -79 -10 -99
-13 l-36 -5 -13 131 c-7 72 -16 131 -19 130 -3 0 -42 -13 -86 -27z"/>
<path d="M7450 3796 c-131 -37 -215 -114 -262 -244 -29 -79 -31 -265 -4 -372
31 -121 59 -175 128 -243 74 -73 128 -96 238 -104 175 -12 342 75 406 212 37
79 47 148 41 280 -14 310 -165 487 -415 484 -48 0 -107 -6 -132 -13z m171
-137 c102 -35 167 -138 190 -304 19 -137 -23 -285 -97 -341 -34 -26 -45 -29
-114 -29 -65 0 -82 4 -112 24 -90 62 -143 210 -136 380 6 150 53 230 157 267
45 16 69 17 112 3z"/>
<path d="M8118 3652 c-26 -3 -23 -7 50 -65 178 -141 265 -238 322 -359 88
-185 73 -357 -40 -462 -108 -101 -178 -118 -701 -166 -177 -17 -459 -46 -628
-65 -1297 -149 -1829 -205 -1959 -205 -48 0 -143 -7 -212 -15 -69 -8 -496 -57
-950 -110 -454 -52 -1034 -120 -1290 -151 -256 -30 -883 -104 -1395 -164 -511
-60 -949 -112 -971 -115 -39 -6 -42 -4 -47 23 -10 52 -67 51 -93 0 -34 -67
-26 -298 17 -466 31 -124 74 -160 128 -108 24 23 42 27 246 51 121 14 461 57
755 95 294 38 771 99 1060 135 289 36 640 81 780 100 140 19 507 66 815 105
308 39 585 77 615 85 30 7 150 21 265 30 116 9 494 52 840 95 597 75 734 93
1445 189 520 70 731 81 860 47 210 -55 356 -200 390 -387 9 -45 10 -140 6
-324 -7 -244 -6 -262 12 -295 39 -71 52 -75 255 -75 151 0 201 4 292 24 142
29 192 51 201 86 13 53 -5 213 -33 288 -94 258 -88 230 -87 382 0 114 5 166
28 280 27 130 28 151 23 300 -10 275 -59 493 -146 639 -55 94 -148 211 -227
286 -54 52 -52 50 19 -33 95 -110 158 -206 213 -322 117 -247 160 -664 81
-784 -18 -27 -45 -47 -100 -74 -104 -49 -111 -62 -105 -190 4 -73 13 -126 33
-187 54 -167 96 -223 181 -240 61 -13 62 -14 90 -173 21 -118 17 -138 -26
-159 -59 -29 -261 -59 -416 -61 -201 -2 -196 -7 -210 211 l-7 102 38 37 c66
64 78 105 79 283 1 204 -11 227 -164 306 -41 21 -102 64 -135 95 -175 163
-287 172 -965 80 -516 -69 -1650 -211 -2085 -261 -198 -22 -375 -42 -392 -44
-18 -2 -33 -1 -33 3 0 9 178 201 225 242 l40 35 175 18 c96 9 229 24 295 31
251 30 1510 177 1965 230 883 102 895 104 974 150 59 34 91 71 123 140 24 53
27 72 28 165 0 173 -54 304 -185 444 -108 116 -310 254 -362 248z m283 -219
c13 -16 12 -17 -3 -4 -10 7 -18 15 -18 17 0 8 8 3 21 -13z m-3181 -1127 c0 -2
-7 -7 -16 -10 -8 -3 -12 -2 -9 4 6 10 25 14 25 6z m-45 -36 c-3 -5 -16 -15
-28 -21 -19 -9 -19 -8 3 10 28 23 34 26 25 11z m3366 -267 c13 -16 12 -17 -3
-4 -10 7 -18 15 -18 17 0 8 8 3 21 -13z m-3754 -131 c-15 -16 -24 -32 -20 -36
4 -4 0 -4 -9 -1 -9 4 -19 2 -23 -4 -3 -6 -11 -11 -17 -11 -6 0 7 13 30 29 22
16 43 34 47 40 3 6 9 11 12 11 4 0 -5 -13 -20 -28z m4150 -768 c-3 -3 -12 -4
-19 -1 -8 3 -5 6 6 6 11 1 17 -2 13 -5z"/>
<path d="M6280 3616 c-57 -8 -75 -15 -73 -26 6 -45 75 -617 89 -744 l17 -149
71 7 c118 10 114 7 104 84 -40 331 -98 820 -98 830 0 14 -8 14 -110 -2z"/>
<path d="M5982 3593 c-62 -19 -132 -76 -160 -133 -22 -44 -26 -40 -37 32 -11
71 -11 71 -100 59 -43 -6 -80 -13 -82 -15 -2 -2 12 -138 31 -302 19 -165 43
-365 52 -446 9 -81 20 -152 24 -158 5 -8 29 -8 90 -1 46 6 84 12 85 13 1 2
-10 111 -26 243 -16 132 -29 267 -29 300 0 72 32 148 79 188 34 28 116 57 164
57 30 0 30 0 23 46 -3 26 -6 66 -6 90 0 41 -2 44 -27 43 -16 0 -52 -8 -81 -16z"/>
<path d="M3142 3578 l-63 -10 5 -36 c3 -21 27 -210 52 -422 84 -717 92 -781
96 -785 4 -4 170 14 176 19 2 3 -13 143 -33 312 -36 299 -36 308 -20 351 42
110 144 170 244 143 47 -12 86 -55 101 -110 6 -21 26 -176 44 -345 19 -169 36
-309 39 -311 7 -7 170 16 178 24 6 6 -60 586 -76 677 -27 147 -158 248 -300
231 -106 -12 -181 -53 -234 -127 l-29 -39 -5 28 c-3 15 -15 114 -28 220 l-23
192 -31 -1 c-16 -1 -58 -6 -93 -11z"/>
<path d="M5366 3521 c-63 -22 -121 -71 -150 -129 -27 -52 -28 -50 -46 42 l-12
58 -61 -6 c-84 -10 -107 -16 -107 -30 1 -31 108 -898 112 -902 5 -4 170 15
175 20 2 2 -10 112 -27 246 -36 287 -36 290 -10 372 30 96 99 153 201 165 l50
6 -6 51 c-15 127 -15 126 -43 125 -15 0 -49 -8 -76 -18z"/>
<path d="M4373 3415 c-87 -19 -144 -47 -197 -95 -55 -50 -83 -106 -92 -181
l-6 -55 68 7 c38 5 81 8 95 8 23 1 27 6 32 43 12 86 71 129 186 136 72 4 79 3
109 -23 31 -26 44 -57 57 -141 l6 -41 -88 -17 c-302 -58 -435 -151 -450 -314
-18 -197 140 -338 339 -302 84 16 144 48 201 109 26 28 50 51 52 51 3 0 5 -8
5 -19 0 -10 5 -33 11 -51 l12 -32 61 6 c112 12 128 17 120 35 -22 54 -38 148
-69 404 -39 320 -51 363 -116 421 -68 62 -195 81 -336 51z m271 -506 c3 -17 6
-56 6 -86 0 -124 -109 -233 -234 -233 -72 0 -136 69 -136 147 0 30 31 89 59
111 33 27 106 55 190 72 114 24 108 24 115 -11z"/>
<path d="M639 3272 c-233 -61 -388 -290 -389 -573 0 -302 126 -557 324 -654
151 -74 352 -62 493 29 55 35 127 112 167 179 31 53 77 200 65 211 -9 10 -203
-25 -211 -37 -4 -7 -8 -23 -8 -38 0 -14 -12 -48 -26 -77 -82 -165 -299 -203
-430 -76 -49 49 -103 151 -130 249 -21 80 -30 293 -15 367 18 82 65 172 112
209 69 54 166 72 253 47 56 -17 150 -110 167 -167 11 -38 15 -42 38 -38 14 3
61 11 104 18 88 15 87 11 34 113 -109 206 -319 297 -548 238z"/>
<path d="M2567 3180 c-205 -52 -318 -227 -303 -470 18 -305 162 -480 395 -480
214 0 357 115 395 318 l6 33 -83 -6 c-106 -8 -103 -7 -110 -50 -13 -78 -71
-134 -158 -150 -93 -17 -182 51 -218 168 -67 217 -41 412 62 471 57 32 97 39
148 26 52 -14 103 -65 113 -110 5 -28 9 -31 33 -26 16 3 58 11 95 17 l66 11
-14 40 c-31 89 -89 154 -169 189 -56 25 -192 35 -258 19z"/>
<path d="M1655 3061 c-128 -32 -199 -82 -244 -173 -22 -44 -31 -75 -31 -111 0
-46 1 -49 23 -44 12 3 54 9 92 12 l70 7 2 40 c3 76 59 122 167 139 57 9 71 8
104 -8 41 -20 76 -80 86 -149 l6 -40 -128 -28 c-278 -61 -404 -165 -405 -336
-2 -262 323 -361 525 -159 52 52 58 55 63 35 24 -84 21 -82 140 -65 64 10 75
14 69 28 -25 59 -47 179 -74 406 -17 143 -36 277 -42 298 -18 59 -80 122 -144
146 -68 26 -180 27 -279 2z m289 -483 c3 -13 6 -50 6 -83 0 -117 -93 -224
-205 -233 -68 -6 -109 10 -134 52 -40 67 -34 125 17 179 39 42 95 67 192 88
111 23 117 23 124 -3z"/>
<path d="M6788 1871 c-26 -4 -50 -9 -53 -13 -3 -3 -3 -36 1 -73 l7 -67 71 7
c39 4 72 8 74 10 1 1 -1 34 -4 74 -8 79 -1 75 -96 62z"/>
<path d="M7900 1741 c-151 -49 -220 -181 -199 -383 12 -124 43 -202 103 -264
80 -82 182 -103 305 -65 77 24 135 70 169 135 26 48 27 58 27 191 -1 121 -4
148 -23 195 -31 78 -76 136 -130 167 -39 23 -59 28 -137 30 -49 1 -101 -1
-115 -6z m155 -117 c68 -32 115 -144 115 -272 0 -130 -36 -200 -116 -221 -130
-35 -221 96 -212 303 4 104 22 146 78 183 39 27 89 29 135 7z"/>
<path d="M5960 1696 c-43 -14 -65 -26 -64 -36 0 -8 4 -47 8 -86 l7 -71 -32 -7
c-17 -3 -43 -6 -56 -6 -21 0 -24 -4 -19 -22 3 -13 6 -38 6 -57 l0 -33 55 7
c30 3 55 3 55 -2 0 -20 40 -401 46 -433 10 -63 40 -118 74 -135 38 -20 118
-22 178 -6 l42 12 0 55 c0 45 -3 55 -14 51 -8 -3 -30 -9 -50 -12 -48 -10 -81
24 -90 91 -11 77 -44 399 -42 401 1 1 35 6 75 9 l73 7 -6 36 c-3 20 -6 44 -6
55 0 17 -6 18 -74 11 l-74 -7 -8 59 c-3 32 -9 76 -13 99 l-6 41 -65 -21z"/>
<path d="M7284 1666 c-114 -28 -189 -101 -214 -208 -17 -69 -7 -225 19 -308
51 -164 201 -243 367 -195 74 21 156 98 172 160 24 92 25 90 -48 86 -36 -1
-68 -5 -72 -8 -5 -2 -8 -17 -8 -33 0 -37 -41 -86 -85 -100 -66 -22 -135 11
-170 80 -38 76 -51 273 -22 342 41 98 195 106 229 12 l13 -36 65 7 c36 4 68
10 72 14 11 10 -36 103 -68 133 -59 55 -160 77 -250 54z"/>
<path d="M4915 1635 c-5 -2 -35 -6 -66 -10 l-56 -6 -37 -81 c-20 -45 -34 -83
-32 -86 3 -2 31 -1 63 3 l58 7 60 80 c33 45 62 85 63 90 4 8 -33 10 -53 3z"/>
<path d="M6808 1603 c-36 -4 -38 -6 -37 -41 1 -61 64 -661 71 -667 3 -3 35 -3
72 1 60 6 65 9 61 28 -2 11 -18 161 -35 331 -17 171 -33 320 -35 333 -6 23
-11 24 -97 15z"/>
<path d="M4275 1588 c-27 -5 -51 -10 -52 -12 -3 -2 8 -108 52 -516 8 -74 22
-208 32 -298 l17 -163 60 7 c34 4 65 10 69 14 4 4 -15 223 -42 487 -28 264
-51 483 -51 486 0 9 -21 7 -85 -5z"/>
<path d="M6575 1579 c-34 -10 -76 -49 -99 -93 -16 -32 -20 -28 -31 36 l-6 36
-57 -5 c-31 -3 -60 -8 -64 -12 -6 -5 57 -666 67 -697 2 -8 22 -8 66 -2 34 4
64 10 67 12 2 3 -6 100 -18 216 -19 196 -20 215 -5 265 22 76 57 104 149 120
38 6 38 7 32 43 -3 20 -6 49 -6 65 0 24 -4 27 -32 26 -18 0 -47 -5 -63 -10z"/>
<path d="M3765 1507 c-137 -16 -251 -30 -252 -31 -1 -1 22 -213 51 -471 l52
-470 29 1 c42 2 505 54 533 60 22 4 23 8 17 62 -4 31 -10 60 -14 64 -3 3 -100
-5 -215 -18 -115 -13 -210 -23 -211 -21 -6 8 -31 273 -26 279 5 5 332 48 366
48 8 0 2 117 -7 125 -3 3 -87 -4 -187 -16 -100 -12 -183 -20 -186 -18 -10 11
-33 254 -24 260 5 3 99 16 209 29 l200 24 0 25 c0 14 -3 43 -6 64 -8 46 9 45
-329 4z"/>
<path d="M5413 1452 c-76 -27 -118 -64 -153 -135 -39 -80 -47 -169 -27 -284
37 -202 136 -303 298 -303 76 0 154 30 202 77 49 47 67 82 74 145 l6 51 -54
-6 c-30 -4 -62 -7 -71 -7 -13 0 -18 -8 -18 -29 0 -68 -81 -130 -154 -117 -71
13 -114 86 -136 231 -28 175 25 279 143 279 43 0 53 -4 78 -32 16 -18 29 -42
29 -53 0 -20 4 -21 48 -15 107 15 103 12 87 57 -36 102 -106 151 -224 156 -56
3 -90 -1 -128 -15z"/>
<path d="M4730 1375 c-112 -35 -181 -145 -188 -300 -9 -194 64 -351 185 -401
56 -24 143 -28 204 -11 70 21 114 51 156 105 31 41 62 117 51 127 -2 2 -34 2
-71 -2 -62 -5 -66 -8 -72 -33 -8 -37 -55 -80 -99 -90 -87 -19 -170 39 -200
141 -9 29 -14 54 -12 56 2 3 105 16 228 30 122 14 225 27 227 29 2 2 -2 34 -8
71 -23 136 -106 253 -199 281 -52 16 -146 14 -202 -3z m172 -120 c34 -23 97
-129 84 -142 -6 -6 -217 -32 -268 -33 -37 0 -38 1 -38 38 0 123 127 201 222
137z"/>
<path d="M780 1184 c-107 -13 -233 -28 -279 -35 l-83 -11 5 -42 c3 -22 27
-237 53 -477 l47 -436 71 5 c39 2 73 6 76 9 2 2 -6 94 -18 205 -12 111 -21
203 -19 204 2 2 357 44 372 44 5 0 -5 122 -10 128 -2 2 -85 -6 -185 -18 -101
-11 -185 -18 -188 -15 -6 6 -35 275 -30 280 2 2 95 14 206 27 l202 23 -6 60
c-4 33 -9 63 -13 66 -3 3 -94 -5 -201 -17z"/>
<path d="M3015 1196 c-141 -36 -211 -114 -237 -264 -23 -134 30 -330 108 -404
50 -47 120 -72 204 -72 100 -1 170 24 234 83 65 61 88 114 94 223 11 203 -62
361 -194 419 -56 25 -147 32 -209 15z m170 -146 c18 -18 44 -56 57 -84 20 -44
23 -67 23 -167 0 -108 -2 -118 -27 -156 -30 -46 -80 -73 -135 -73 -105 0 -183
121 -183 285 0 154 69 240 183 232 38 -3 55 -11 82 -37z"/>
<path d="M2564 1131 c-43 -20 -104 -77 -104 -98 0 -7 -4 -13 -9 -13 -5 0 -13
21 -18 48 -4 26 -13 46 -18 46 -6 -1 -36 -5 -69 -9 -57 -6 -58 -7 -53 -33 3
-15 20 -175 38 -355 l34 -329 45 7 c25 3 56 8 70 11 l26 5 -18 162 c-24 224
-25 298 -1 345 26 48 74 80 134 88 l49 7 0 68 0 69 -32 0 c-18 0 -51 -9 -74
-19z"/>
<path d="M2090 1080 c-56 -19 -91 -51 -114 -104 l-13 -29 -7 39 c-14 77 -11
75 -74 68 -31 -4 -61 -10 -65 -14 -7 -6 33 -440 59 -654 l6 -49 65 6 c35 2 66
7 69 10 3 3 -4 103 -17 222 -18 182 -20 222 -9 258 18 62 68 104 140 119 l60
12 0 52 c0 92 -7 96 -100 64z"/>
<path d="M1307 996 c-83 -30 -152 -100 -182 -186 -51 -145 -13 -360 82 -462
59 -62 115 -83 215 -82 102 1 192 43 243 112 34 48 63 117 52 128 -3 3 -38 3
-76 -1 -61 -6 -71 -10 -71 -26 0 -11 -15 -35 -33 -55 -26 -29 -42 -37 -79 -41
-26 -3 -58 -3 -72 1 -57 14 -116 90 -131 168 l-7 35 119 13 c248 26 344 38
349 43 11 11 -17 141 -41 191 -57 121 -140 176 -259 176 -39 -1 -88 -7 -109
-14z m160 -116 c32 -19 93 -111 93 -141 0 -13 -28 -18 -157 -32 -87 -8 -159
-14 -162 -11 -2 2 1 29 8 60 13 57 56 119 95 134 36 15 90 11 123 -10z"/>
</g>
</svg>
